<svg width="125" height="126" viewBox="0 0 125 126" fill="none" xmlns="http://www.w3.org/2000/svg">
<path d="M123.5 63C123.5 96.9768 96.1781 124.5 62.5 124.5C28.8219 124.5 1.5 96.9768 1.5 63C1.5 29.0232 28.8219 1.5 62.5 1.5C96.1781 1.5 123.5 29.0232 123.5 63Z" fill="white" stroke="#E97400" stroke-width="3"/>
<path d="M83.8333 25.5H29.6667C27.3655 25.5 25.5 27.3655 25.5 29.6667V83.8333C25.5 86.1345 27.3655 88 29.6667 88H83.8333C86.1345 88 88 86.1345 88 83.8333V29.6667C88 27.3655 86.1345 25.5 83.8333 25.5Z" stroke="#E97400" stroke-width="2" stroke-linejoin="round"/>
<path d="M100.5 38V94.25C100.5 97.7019 97.7019 100.5 94.25 100.5H38" stroke="#E97400" stroke-width="2" stroke-linecap="round" stroke-linejoin="round"/>
<path d="M25.5 65.0833L41.4504 50.9049C43.0425 49.4899 45.4454 49.5033 47.0215 50.9362L67.1667 69.2499" stroke="#E97400" stroke-width="2" stroke-linecap="round" stroke-linejoin="round"/>
<path d="M58.8335 60.9166L68.802 52.6093C70.2858 51.3731 72.4245 51.3183 73.9695 52.477L88.0002 62.9999" stroke="#E97400" stroke-width="2" stroke-linecap="round" stroke-linejoin="round"/>
<path d="M25.5 52.5834V69.25" stroke="#E97400" stroke-width="2" stroke-linecap="round" stroke-linejoin="round"/>
<path d="M88 52.5834V69.25" stroke="#E97400" stroke-width="2" stroke-linecap="round" stroke-linejoin="round"/>
</svg>
