<svg width="36" height="37" viewBox="0 0 36 37" fill="none" xmlns="http://www.w3.org/2000/svg">
<rect y="0.0126953" width="36" height="36" rx="8" fill="#E97400"/>
<path fill-rule="evenodd" clip-rule="evenodd" d="M9 18.0127C9 14.4176 9 12.62 9.85669 11.3252C10.2392 10.7471 10.7344 10.2519 11.3126 9.86939C12.6073 9.0127 14.4049 9.0127 18 9.0127C21.5951 9.0127 23.3927 9.0127 24.6874 9.86939C25.2656 10.2519 25.7608 10.7471 26.1433 11.3252C27 12.62 27 14.4176 27 18.0127C27 21.6078 27 23.4054 26.1433 24.7001C25.7608 25.2783 25.2656 25.7734 24.6874 26.156C23.3927 27.0127 21.5951 27.0127 18 27.0127C14.4049 27.0127 12.6073 27.0127 11.3126 26.156C10.7344 25.7734 10.2392 25.2783 9.85669 24.7001C9 23.4054 9 21.6078 9 18.0127ZM22.6593 18.0129C22.6593 20.5862 20.5732 22.6723 17.9998 22.6723C15.4265 22.6723 13.3404 20.5862 13.3404 18.0129C13.3404 15.4396 15.4265 13.3535 17.9998 13.3535C20.5732 13.3535 22.6593 15.4396 22.6593 18.0129ZM17.9998 21.0959C19.7025 21.0959 21.0828 19.7156 21.0828 18.0129C21.0828 16.3102 19.7025 14.9299 17.9998 14.9299C16.2971 14.9299 14.9168 16.3102 14.9168 18.0129C14.9168 19.7156 16.2971 21.0959 17.9998 21.0959ZM22.8433 14.2142C23.4479 14.2142 23.9381 13.7241 23.9381 13.1194C23.9381 12.5148 23.4479 12.0246 22.8433 12.0246C22.2386 12.0246 21.7485 12.5148 21.7485 13.1194C21.7485 13.7241 22.2386 14.2142 22.8433 14.2142Z" fill="white"/>
</svg>
