<svg width="36" height="37" viewBox="0 0 36 37" fill="none" xmlns="http://www.w3.org/2000/svg">
<rect y="0.0126953" width="36" height="36" rx="8" fill="#E97400"/>
<path d="M9 11.4327C9 10.8555 9.20271 10.3793 9.60811 10.0042C10.0135 9.62899 10.5405 9.44141 11.1892 9.44141C11.8263 9.44141 12.3417 9.6261 12.7355 9.99552C13.1409 10.3765 13.3436 10.8729 13.3436 11.4847C13.3436 12.0388 13.1467 12.5006 12.7529 12.87C12.3475 13.2509 11.8147 13.4414 11.1544 13.4414H11.1371C10.5 13.4414 9.98456 13.2509 9.59073 12.87C9.19691 12.489 9 12.0099 9 11.4327ZM9.22587 26.5843V15.0172H13.083V26.5843H9.22587ZM15.2201 26.5843H19.0772V20.1254C19.0772 19.7213 19.1236 19.4096 19.2162 19.1903C19.3784 18.7978 19.6245 18.4659 19.9546 18.1946C20.2847 17.9234 20.6988 17.7877 21.1969 17.7877C22.4942 17.7877 23.1429 18.6593 23.1429 20.4024V26.5843H27V19.9522C27 18.2437 26.5946 16.9479 25.7838 16.0648C24.973 15.1817 23.9015 14.7401 22.5695 14.7401C21.0753 14.7401 19.9112 15.3808 19.0772 16.6622V16.6968H19.0598L19.0772 16.6622V15.0172H15.2201C15.2432 15.3866 15.2548 16.5352 15.2548 18.463C15.2548 20.3909 15.2432 23.098 15.2201 26.5843Z" fill="white"/>
</svg>
