<svg width="36" height="37" viewBox="0 0 36 37" fill="none" xmlns="http://www.w3.org/2000/svg">
<rect y="0.0126953" width="36" height="36" rx="8" fill="#E97400"/>
<path d="M21.0271 10.7142V10.7109H21.8711L22.1794 10.7725C22.385 10.8125 22.5717 10.8649 22.7394 10.9298C22.9071 10.9946 23.0694 11.0702 23.2263 11.1567C23.3832 11.2431 23.5255 11.3312 23.6532 11.4209C23.7798 11.5095 23.8934 11.6035 23.9941 11.7029C24.0936 11.8034 24.2489 11.8293 24.4599 11.7807C24.6709 11.7321 24.8981 11.6645 25.1416 11.5781C25.385 11.4916 25.6258 11.3944 25.8638 11.2863C26.1019 11.1783 26.2469 11.1097 26.2988 11.0805C26.3497 11.0502 26.3768 11.034 26.38 11.0319L26.3832 11.027L26.3995 11.0189L26.4157 11.0108L26.4319 11.0027L26.4482 10.9946L26.4514 10.9897L26.4563 10.9865L26.4612 10.9832L26.4644 10.9784L26.4806 10.9735L26.4968 10.9703L26.4936 10.9946L26.4887 11.0189L26.4806 11.0432L26.4725 11.0675L26.4644 11.0837L26.4563 11.0999L26.4482 11.1243C26.4427 11.1405 26.4373 11.1621 26.4319 11.1891C26.4265 11.2161 26.3751 11.3242 26.2777 11.5133C26.1803 11.7024 26.0586 11.8942 25.9125 12.0887C25.7665 12.2832 25.6355 12.4301 25.5198 12.5295C25.4029 12.63 25.3255 12.7002 25.2876 12.7402C25.2498 12.7813 25.2038 12.8191 25.1497 12.8537L25.0685 12.9072L25.0523 12.9153L25.0361 12.9234L25.0328 12.9282L25.028 12.9315L25.0231 12.9347L25.0198 12.9396L25.0036 12.9477L24.9874 12.9558L24.9841 12.9607L24.9793 12.9639L24.9744 12.9671L24.9711 12.972L24.9679 12.9769L24.963 12.9801L24.9582 12.9834L24.9549 12.9882H25.0361L25.4905 12.891C25.7935 12.8261 26.083 12.7478 26.3589 12.6559L26.7971 12.5101L26.8458 12.4939L26.8702 12.4858L26.8864 12.4777L26.9026 12.4695L26.9188 12.4614L26.9351 12.4533L26.9675 12.4485L27 12.4452V12.4777L26.9919 12.4809L26.9838 12.4858L26.9805 12.4906L26.9757 12.4939L26.9708 12.4971L26.9675 12.502L26.9643 12.5068L26.9594 12.5101L26.9546 12.5133L26.9513 12.5182L26.9481 12.523L26.9432 12.5263L26.9351 12.5425L26.927 12.5587L26.9221 12.5619C26.9199 12.5652 26.8512 12.657 26.716 12.8375C26.5807 13.019 26.5077 13.1109 26.4968 13.113C26.486 13.1163 26.4709 13.1325 26.4514 13.1616C26.433 13.1919 26.3183 13.3124 26.1073 13.5231C25.8963 13.7338 25.6897 13.9213 25.4873 14.0855C25.2839 14.2509 25.1811 14.454 25.1789 14.695C25.1757 14.9348 25.1632 15.2061 25.1416 15.5086C25.1199 15.8112 25.0794 16.138 25.0198 16.4892C24.9603 16.8404 24.8684 17.2375 24.7439 17.6806C24.6195 18.1236 24.468 18.5558 24.2894 18.9772C24.1109 19.3986 23.9243 19.7768 23.7295 20.1118C23.5347 20.4468 23.3562 20.7304 23.1939 20.9628C23.0316 21.1951 22.8666 21.4139 22.6988 21.6192C22.5311 21.8245 22.319 22.0558 22.0626 22.3129C21.8051 22.569 21.6644 22.7095 21.6406 22.7343C21.6157 22.7581 21.5097 22.8467 21.3225 23.0002C21.1363 23.1547 20.9362 23.3092 20.7219 23.4637C20.5088 23.6172 20.3129 23.7452 20.1344 23.8479C19.9558 23.9505 19.7405 24.0677 19.4884 24.1996C19.2373 24.3325 18.9657 24.4557 18.6736 24.5691C18.3814 24.6826 18.073 24.7879 17.7484 24.8852C17.4238 24.9824 17.11 25.0581 16.807 25.1121C16.5041 25.1661 16.1605 25.2121 15.7764 25.2499L15.2002 25.3066V25.3147H14.1452V25.3066L14.0072 25.2985C13.9152 25.2931 13.8395 25.2877 13.78 25.2823C13.7205 25.2769 13.4959 25.2472 13.1064 25.1932C12.7169 25.1391 12.4112 25.0851 12.1894 25.0311C11.9675 24.977 11.6375 24.8744 11.1993 24.7231C10.761 24.5718 10.3861 24.4189 10.0745 24.2644C9.76394 24.111 9.56917 24.0137 9.49017 23.9727C9.41226 23.9327 9.32462 23.883 9.22723 23.8235L9.08115 23.7344L9.07792 23.7295L9.07304 23.7263L9.06817 23.723L9.06492 23.7182L9.04869 23.7101L9.03246 23.702L9.02923 23.6971L9.02435 23.6939L9.01948 23.6906L9.01623 23.6858L9.013 23.6809L9.00812 23.6777H9V23.6452L9.01623 23.6485L9.03246 23.6534L9.1055 23.6615C9.15419 23.6669 9.28675 23.675 9.50316 23.6858C9.71958 23.6966 9.9495 23.6966 10.193 23.6858C10.4364 23.675 10.6853 23.6506 10.9396 23.6128C11.1939 23.575 11.4941 23.5102 11.8404 23.4183C12.1867 23.3265 12.5048 23.2173 12.7948 23.0909C13.0837 22.9634 13.2893 22.8683 13.4116 22.8057C13.5327 22.7441 13.7178 22.6295 13.9666 22.462L14.3399 22.2108L14.3432 22.2059L14.3481 22.2027L14.3529 22.1995L14.3562 22.1946L14.3594 22.1897L14.3643 22.1865L14.3692 22.1832L14.3724 22.1784L14.3886 22.1735L14.4049 22.1703L14.4081 22.1541L14.413 22.1379L14.4179 22.1346L14.4211 22.1298L14.2913 22.1217C14.2047 22.1163 14.1208 22.1108 14.0397 22.1054C13.9585 22.1001 13.8314 22.0757 13.6583 22.0325C13.4851 21.9893 13.2985 21.9244 13.0983 21.838C12.8981 21.7516 12.7033 21.6489 12.514 21.5301C12.3246 21.4112 12.1877 21.3123 12.1033 21.2334C12.02 21.1556 11.9118 21.0454 11.7787 20.9028C11.6467 20.7591 11.532 20.6116 11.4346 20.4603C11.3372 20.309 11.2442 20.1345 11.1555 19.9368L11.0207 19.6418L11.0126 19.6175L11.0045 19.5931L10.9996 19.5769L10.9964 19.5607L11.0207 19.564L11.0451 19.5688L11.2236 19.5931C11.3427 19.6094 11.5293 19.6148 11.7836 19.6094C12.0379 19.604 12.2137 19.5931 12.3111 19.5769C12.4085 19.5607 12.468 19.5499 12.4896 19.5445L12.5221 19.5364L12.5627 19.5283L12.6032 19.5202L12.6065 19.5153L12.6114 19.5121L12.6162 19.5089L12.6195 19.504L12.587 19.4959L12.5546 19.4878L12.5221 19.4797L12.4896 19.4716L12.4572 19.4635C12.4355 19.4581 12.3977 19.4473 12.3436 19.4311C12.2895 19.4149 12.1434 19.3554 11.9053 19.2528C11.6673 19.1501 11.4779 19.0502 11.3372 18.9529C11.1962 18.8554 11.0618 18.7487 10.9347 18.6336C10.8081 18.5169 10.6691 18.3667 10.5176 18.183C10.3661 17.9993 10.2308 17.7859 10.1118 17.5428C9.99279 17.2997 9.90352 17.0673 9.844 16.8458C9.78472 16.6256 9.74561 16.4005 9.72716 16.1732L9.69793 15.8328L9.71416 15.836L9.73039 15.8409L9.74662 15.849L9.76285 15.8571L9.77908 15.8652L9.79531 15.8733L10.0469 15.9868C10.2146 16.0624 10.4229 16.1273 10.6718 16.1813C10.9207 16.2353 11.0694 16.265 11.1181 16.2704L11.1912 16.2785H11.3372L11.334 16.2737L11.3291 16.2704L11.3243 16.2672L11.321 16.2623L11.3178 16.2575L11.3129 16.2542L11.308 16.251L11.3048 16.2461L11.2885 16.238L11.2723 16.2299L11.2691 16.225L11.2642 16.2218L11.2593 16.2186L11.2561 16.2137L11.2399 16.2056L11.2236 16.1975L11.2204 16.1926C11.2171 16.1904 11.1706 16.1559 11.0808 16.0889C10.9921 16.0208 10.899 15.9328 10.8016 15.8247C10.7042 15.7166 10.6069 15.6032 10.5095 15.4843C10.4119 15.3652 10.325 15.2377 10.2498 15.1034C10.174 14.9684 10.094 14.7965 10.0096 14.588C9.92625 14.3805 9.86294 14.1714 9.81966 13.9607C9.77639 13.75 9.75204 13.542 9.74662 13.3367C9.74121 13.1314 9.74662 12.9558 9.76285 12.8099C9.77908 12.6641 9.81154 12.4993 9.86023 12.3156C9.90893 12.1319 9.97927 11.9374 10.0712 11.7321L10.2092 11.4241L10.2173 11.3998L10.2254 11.3755L10.2303 11.3722L10.2335 11.3674L10.2368 11.3625L10.2417 11.3593L10.2465 11.3625L10.2498 11.3674L10.253 11.3722L10.2579 11.3755L10.2628 11.3787L10.266 11.3836L10.2693 11.3884L10.2741 11.3917L10.2822 11.4079L10.2904 11.4241L10.2952 11.4273L10.2985 11.4322L10.5176 11.6753C10.6637 11.8374 10.8368 12.0184 11.037 12.2183C11.2372 12.4182 11.3481 12.522 11.3697 12.5295C11.3914 12.5382 11.4184 12.563 11.4509 12.6041C11.4833 12.6441 11.5915 12.7397 11.7755 12.891C11.9594 13.0422 12.2002 13.2178 12.4977 13.4177C12.7953 13.6176 13.1253 13.8148 13.4878 14.0093C13.8503 14.2038 14.2399 14.3794 14.6564 14.5361C15.073 14.6928 15.3652 14.7955 15.5329 14.8441C15.7006 14.8927 15.9874 14.9548 16.3931 15.0305C16.7989 15.1061 17.1046 15.1547 17.3102 15.1764C17.5158 15.198 17.6565 15.2104 17.7322 15.2136L17.8458 15.2169L17.8426 15.1926L17.8377 15.1682L17.8052 14.9656C17.7836 14.8306 17.7728 14.6415 17.7728 14.3984C17.7728 14.1552 17.7917 13.931 17.8296 13.7257C17.8675 13.5204 17.9243 13.3124 18 13.1017C18.0757 12.891 18.1499 12.7218 18.2224 12.5944C18.296 12.4679 18.3923 12.3237 18.5113 12.1616C18.6303 11.9995 18.7845 11.832 18.9739 11.6591C19.1632 11.4862 19.3796 11.3323 19.6231 11.1972C19.8665 11.0621 20.0911 10.9595 20.2967 10.8892C20.5023 10.819 20.6754 10.7731 20.8161 10.7515C20.9567 10.7299 21.0271 10.7174 21.0271 10.7142Z" fill="white"/>
</svg>
