<svg width="127" height="126" viewBox="0 0 127 126" fill="none" xmlns="http://www.w3.org/2000/svg">
<path d="M125.5 63C125.5 96.9544 97.7529 124.5 63.5 124.5C29.2471 124.5 1.5 96.9544 1.5 63C1.5 29.0456 29.2471 1.5 63.5 1.5C97.7529 1.5 125.5 29.0456 125.5 63Z" fill="white" stroke="#E97400" stroke-width="3"/>
<path d="M50.3182 78V71.1818L63.3409 60.4091C64.2045 59.6932 64.9432 59.0227 65.5568 58.3977C66.1818 57.7614 66.6591 57.108 66.9886 56.4375C67.3295 55.767 67.5 55.0227 67.5 54.2045C67.5 53.3068 67.3068 52.5398 66.9205 51.9034C66.5455 51.267 66.0227 50.7784 65.3523 50.4375C64.6818 50.0852 63.9091 49.9091 63.0341 49.9091C62.1591 49.9091 61.3864 50.0852 60.7159 50.4375C60.0568 50.7898 59.5455 51.3068 59.1818 51.9886C58.8182 52.6705 58.6364 53.5 58.6364 54.4773H49.6364C49.6364 52.0227 50.1875 49.9091 51.2898 48.1364C52.392 46.3636 53.9489 45 55.9602 44.0455C57.9716 43.0909 60.3295 42.6136 63.0341 42.6136C65.8295 42.6136 68.25 43.0625 70.2955 43.9602C72.3523 44.8466 73.9375 46.0966 75.0511 47.7102C76.1761 49.3239 76.7386 51.2159 76.7386 53.3864C76.7386 54.7273 76.4602 56.0625 75.9034 57.392C75.3466 58.7102 74.3466 60.1705 72.9034 61.7727C71.4602 63.375 69.4091 65.2841 66.75 67.5L63.4773 70.2273V70.4318H77.1136V78H50.3182Z" fill="#E97400"/>
</svg>
