<svg width="125" height="126" viewBox="0 0 125 126" fill="none" xmlns="http://www.w3.org/2000/svg">
<path d="M123.5 63C123.5 96.9768 96.1781 124.5 62.5 124.5C28.8219 124.5 1.5 96.9768 1.5 63C1.5 29.0232 28.8219 1.5 62.5 1.5C96.1781 1.5 123.5 29.0232 123.5 63Z" fill="white" stroke="#E97400" stroke-width="3"/>
<path d="M62.9545 74.4773C60.2045 74.4773 57.7614 74.0057 55.625 73.0625C53.5 72.108 51.8295 70.7955 50.6136 69.125C49.3977 67.4545 48.7841 65.5341 48.7727 63.3636H58.3182C58.3295 64.0341 58.5341 64.6364 58.9318 65.1705C59.3409 65.6932 59.8977 66.1023 60.6023 66.3977C61.3068 66.6932 62.1136 66.8409 63.0227 66.8409C63.8977 66.8409 64.6705 66.6875 65.3409 66.3807C66.0114 66.0625 66.5341 65.625 66.9091 65.0682C67.2841 64.5114 67.4659 63.875 67.4545 63.1591C67.4659 62.4545 67.25 61.8295 66.8068 61.2841C66.375 60.7386 65.767 60.3125 64.983 60.0057C64.1989 59.6989 63.2955 59.5455 62.2727 59.5455H58.7273V53H62.2727C63.2159 53 64.0455 52.8466 64.7614 52.5398C65.4886 52.233 66.0511 51.8068 66.4489 51.2614C66.858 50.7159 67.0568 50.0909 67.0455 49.3864C67.0568 48.7045 66.892 48.1023 66.5511 47.5795C66.2102 47.0568 65.733 46.6477 65.1193 46.3523C64.517 46.0568 63.8182 45.9091 63.0227 45.9091C62.1591 45.9091 61.3864 46.0625 60.7045 46.3693C60.0341 46.6761 59.5057 47.1023 59.1193 47.6477C58.733 48.1932 58.5341 48.8182 58.5227 49.5227H49.4545C49.4659 47.3864 50.0511 45.5 51.2102 43.8636C52.3807 42.2273 53.983 40.9432 56.017 40.0114C58.0511 39.0795 60.3864 38.6136 63.0227 38.6136C65.6023 38.6136 67.8807 39.0511 69.858 39.9261C71.8466 40.8011 73.3977 42.0057 74.5114 43.5398C75.6364 45.0625 76.1932 46.8068 76.1818 48.7727C76.2045 50.7273 75.5341 52.3295 74.1705 53.5795C72.8182 54.8295 71.1023 55.5682 69.0227 55.7955V56.0682C71.8409 56.375 73.9602 57.2386 75.3807 58.6591C76.8011 60.0682 77.5 61.8409 77.4773 63.9773C77.4886 66.0227 76.875 67.8352 75.6364 69.4148C74.4091 70.9943 72.6989 72.233 70.5057 73.1307C68.3239 74.0284 65.8068 74.4773 62.9545 74.4773Z" fill="#E97400"/>
</svg>
