<svg width="36" height="37" viewBox="0 0 36 37" fill="none" xmlns="http://www.w3.org/2000/svg">
<rect y="0.0126953" width="36" height="36" rx="8" fill="#E97400"/>
<path d="M18.4388 24.9924L14.3766 24.9165C13.0613 24.89 11.7428 24.9428 10.4533 24.6687C8.49177 24.2592 8.35281 22.2513 8.20739 20.5671C8.00703 18.1992 8.0846 15.7884 8.46271 13.4403C8.67616 12.1228 9.51619 11.3366 10.8153 11.2511C15.2006 10.9406 19.6151 10.9774 23.9908 11.1223C24.4529 11.1355 24.9182 11.2081 25.3739 11.2907C27.6232 11.6936 27.678 13.969 27.8238 15.8845C27.9692 17.8197 27.9078 19.7649 27.6299 21.6869C27.4069 23.2783 26.9803 24.6129 25.1799 24.7417C22.9242 24.9102 20.7202 25.0458 18.4581 25.0026C18.4582 24.9924 18.4452 24.9924 18.4388 24.9924ZM16.0506 20.9634C17.7505 19.966 19.418 18.9852 21.1081 17.9945C19.4051 16.9971 17.7408 16.0163 16.0506 15.0256V20.9634Z" fill="white"/>
</svg>
